# xmcd
#
# Track frame offsets:
#	150
#	18645
#	29817
#	46377
#	57829
#	76279
#	89758
#	102268
#	114494
#	132875
#
# Disc length: 1954 seconds
#
# Revision: 1
# Processed by: cddbd v1.5.2PL0 Copyright (c) Steve Scherf et al.
# Submitted via: audiograbber 1.83.01
#
DISCID=8607a00a
DTITLE=Dan Britton - So Low
DYEAR=1900
DGENRE=
TTITLE0=Dan Britton - In The Garden
TTITLE1=Dan Britton - King of the Road
TTITLE2=Dan Britton - Pieces of his Heart
TTITLE3=Dan Britton - My Old World
TTITLE4=Dan Britton - That's all I Need To Know
TTITLE5=Dan Britton - Jesus ans John
TTITLE6=Dan Britton - Dream On
TTITLE7=Dan Britton - Sixteen Tons
TTITLE8=Dan Britton - It's Never The Right Time
TTITLE9=Dan Britton - Good Time Charlie's Got The Blues
EXTD=Sings with Pierce Arrow
EXTT0=
EXTT1=
EXTT2=
EXTT3=
EXTT4=
EXTT5=
EXTT6=
EXTT7=
EXTT8=
EXTT9=
PLAYORDER=
